<svg version="1" xmlns="http://www.w3.org/2000/svg" width="341.333" height="341.333" viewBox="0 0 256.000000 256.000000"><path d="M127.8 29.5c-.2.2-2.2.5-4.5.9-14.9 2-26.3 15.4-26.5 31.2-.1 12.9 6.3 23.2 18.5 29.6 5.9 3.1 20.1 3.2 26.7.1 6-2.7 13-9.6 16-15.8 3.5-7.3 3.5-19.9 0-27-4.9-10.1-13.6-16.6-24.3-18.3-3.1-.5-5.8-.8-5.9-.7zM31.4 125.9c-.2.2-.4 1.9-.4 3.6v3.2h99l99 .1v-3.4c0-1.9-.3-3.5-.7-3.5-2.2-.4-196.5-.3-196.9 0zM126.3 160.2c-.6.7-2.4 3.8-4.1 6.9-1.6 3.2-3.7 6.8-4.5 8-.9 1.3-2.8 4.7-4.4 7.4-4 7.2-15.2 26.7-16.4 28.5-4.5 7.3-9.9 17.3-9.5 17.7.5.5 79.7.5 80.2 0 .2-.2-7.6-14-17.3-30.8-9.6-16.7-18.5-32-19.5-33.9-2.7-4.8-3.3-5.3-4.5-3.8z"/></svg>